#!OML:ASF F:\VICON\USERDATA\INSTALL\rory3\rory3.ASF
:FULLY-SPECIFIED
:DEGREES
347
root 0.506338 19.9055 0.550064 2.82064 -74.6113 -1.01229
lowerback 8.52089 -0.45301 -2.98248
upperback -6.14944 -1.3258 -2.14679
thorax -11.4261 -0.539064 -0.398213
lowerneck -21.8299 -9.06043 -16.6865
upperneck -8.13108 -8.61252 12.5994
head 2.15325 -3.72144 5.8716
rclavicle 5.66536e-015 -1.74931e-014
rhumerus 93.0796 -29.9943 -44.4174
rradius 31.0537
rwrist -11.6548
rhand -23.3769 -3.75302
rfingers 7.12502
rthumb 3.07912 -33.7105
lclavicle 5.66536e-015 -1.74931e-014
lhumerus 92.5901 17.1671 57.4162
lradius 27.9023
lwrist 21.3958
lhand -13.0007 40.3595
lfingers 7.12502
lthumb 13.0925 69.9286
rfemur -11.3687 1.03985 16.7299
rtibia 35.6904
rfoot -4.75006 -15.217
rtoes 14.9759
lfemur -13.0079 -1.50061 -10.1803
ltibia 30.596
lfoot 7.61492 4.80099
ltoes -11.6389
348
root 0.5129 19.9039 0.563443 2.42278 -74.77 -0.645484
lowerback 8.4087 -0.420195 -3.05651
upperback -6.29651 -1.2594 -1.8362
thorax -11.5156 -0.484076 -0.0343748
lowerneck -21.5643 -8.90503 -17.2254
upperneck -7.98715 -8.31777 12.473
head 2.12957 -3.57111 5.95314
rclavicle -8.54774e-015 2.38542e-014
rhumerus 92.0253 -29.2451 -41.7912
rradius 32.6133
rwrist -11.2374
rhand -21.2971 -2.45263
rfingers 7.12502
rthumb 5.08746 -32.3716
lclavicle -8.54774e-015 2.38542e-014
lhumerus 94.3653 17.2394 59.7697
lradius 25.7976
lwrist 20.5295
lhand -14.2075 41.1652
lfingers 7.12502
lthumb 11.929 70.8053
rfemur -11.2817 1.08447 16.2347
rtibia 35.9224
rfoot -4.19109 -15.4807
rtoes 13.6534
lfemur -12.6267 -1.88407 -10.3303
ltibia 30.4443
lfoot 7.61753 4.99645
ltoes -11.6692
349
root 0.517511 19.8891 0.576022 3.15571 -74.9636 -1.47701
lowerback 8.32066 -0.410623 -2.81581
upperback -6.51008 -1.17775 -1.45316
thorax -11.6996 -0.441968 0.229167
lowerneck -21.0558 -8.75927 -17.8413
upperneck -7.8402 -8.06242 12.5369
head 2.09523 -3.43848 6.10762
rclavicle 3.98563e-014 7.95139e-016
rhumerus 90.8982 -28.3767 -39.1706
rradius 34.1882
rwrist -10.623
rhand -19.0707 -0.910535
rfingers 7.12502
rthumb 7.23688 -30.7668
lclavicle 3.98563e-014 7.95139e-016
lhumerus 95.8134 17.2958 61.8636
lradius 24.0196
lwrist 19.3879
lhand -15.2023 42.3075
lfingers 7.12502
lthumb 10.9696 72.0009
rfemur -11.1392 1.40665 16.0538
rtibia 36.0838
rfoot -3.88839 -15.2654
rtoes 14.9503
lfemur -12.2075 -2.07417 -10.1091
ltibia 30.2601
lfoot 7.89964 4.8796
ltoes -11.7644
350
root 0.525555 19.8664 0.589288 2.9724 -75.1302 -1.28593
lowerback 8.14099 -0.339008 -2.84384
upperback -6.62715 -1.03262 -1.00282
thorax -11.7163 -0.345854 0.704632
lowerneck -20.9162 -8.84001 -18.7522
upperneck -7.69412 -7.97961 12.3779
head 2.12126 -3.38422 6.20864
rclavicle -1.10325e-014 1.19271e-014
rhumerus 90.0407 -27.6226 -36.4164
rradius 35.8427
rwrist -9.96449
rhand -17.1696 0.830486
rfingers 7.12502
rthumb 9.07171 -28.9544
lclavicle -1.10325e-014 1.19271e-014
lhumerus 97.0867 17.5633 63.8503
lradius 22.7375
lwrist 18.2489
lhand -16.3636 43.6454
lfingers 7.12502
lthumb 9.84933 73.395
rfemur -11.0778 1.8929 15.6051
rtibia 36.186
rfoot -3.587 -15.1986
rtoes 16.3569
lfemur -11.8768 -2.28388 -10.1863
ltibia 30.0311
lfoot 8.45918 4.53928
ltoes -10.9947
351
root 0.533207 19.8319 0.602647 1.91604 -75.3546 -0.198333
lowerback 7.79368 -0.59232 -2.87186
upperback -6.04534 -1.35178 -1.1803
thorax -10.8399 -0.51676 0.57849
lowerneck -23.0107 -8.4949 -16.9518
upperneck -7.41875 -7.62989 11.7872
head 2.34256 -3.23337 5.73225
rclavicle -1.63003e-014 -3.4191e-014
rhumerus 90.7096 -27.5616 -36.4193
rradius 37.242
rwrist -8.55122
rhand -15.5569 2.63176
rfingers 7.12502
rthumb 10.6276 -27.0795
lclavicle -1.63003e-014 -3.4191e-014
lhumerus 99.1933 18.7132 64.3399
lradius 22.0749
lwrist 16.9422
lhand -17.2584 45.1626
lfingers 7.12502
lthumb 8.98605 74.9513
rfemur -10.9848 2.56872 14.8839
rtibia 36.2254
rfoot -3.20116 -15.3495
rtoes 18.291
lfemur -11.5339 -2.61922 -10.5223
ltibia 29.7949
lfoot 9.17036 4.20888
ltoes -10.174
352
root 0.539334 19.7813 0.617012 1.49632 -75.5691 0.104975
lowerback 7.6251 -0.750091 -2.65343
upperback -5.66802 -1.51768 -1.26013
thorax -10.3174 -0.622613 0.393629
lowerneck -24.1743 -8.23238 -15.9684
upperneck -7.25659 -7.37883 11.5675
head 2.46987 -3.11924 5.51478
rclavicle 3.47873e-015 2.38542e-015
rhumerus 90.6624 -27.395 -35.5773
rradius 38.8392
rwrist -7.794
rhand -14.2537 3.73253
rfingers 7.12502
rthumb 11.8845 -25.9102
lclavicle 3.47873e-015 2.38542e-015
lhumerus 100.509 19.6836 64.373
lradius 21.8467
lwrist 15.6427
lhand -17.9087 46.5732
lfingers 7.12502
lthumb 8.35841 76.3879
rfemur -10.7476 3.22253 14.3745
rtibia 36.2553
rfoot -2.77068 -15.3062
rtoes 20.5548
lfemur -11.0728 -3.03252 -10.648
ltibia 29.527
lfoot 9.89842 3.91407
ltoes -9.58964
353
root 0.54776 19.7213 0.628933 2.97467 -75.734 -1.46554
lowerback 7.45519 -0.950515 -1.97152
upperback -5.35858 -1.68004 -1.23931
thorax -9.88347 -0.751449 0.0547196
lowerneck -25.2259 -7.85614 -14.8679
upperneck -7.02431 -7.04947 11.25
head 2.58748 -2.97502 5.25866
rclavicle 1.3418e-015 2.38542e-015
rhumerus 90.5912 -27.1457 -34.9252
rradius 40.4709
rwrist -6.71923
rhand -13.3281 4.58683
rfingers 7.12502
rthumb 12.7769 -25.0022
lclavicle 1.3418e-015 2.38542e-015
lhumerus 101.318 20.8434 63.6819
lradius 21.9581
lwrist 14.5236
lhand -18.7118 46.9971
lfingers 7.12502
lthumb 7.58329 76.8411
rfemur -10.6245 3.78904 14.4157
rtibia 36.2557
rfoot -2.42204 -15.3512
rtoes 20.6141
lfemur -10.7604 -3.42678 -10.2198
ltibia 29.2451
lfoot 10.6618 3.54561
ltoes -9.51562
